<mxfile host="app.diagrams.net" modified="2023-04-21T03:11:27.323Z" agent="Mozilla/5.0 (Windows NT 10.0; Win64; x64) AppleWebKit/537.36 (KHTML, like Gecko) Chrome/111.0.0.0 Safari/537.36" etag="WNwXjHdIMh_qlf8Ko5er" version="21.2.1" type="github">
  <diagram name="Join转换02" id="xcNkks_b-lNrzu6cmJ4J">
    <mxGraphModel dx="1687" dy="833" grid="1" gridSize="10" guides="1" tooltips="1" connect="1" arrows="1" fold="1" page="1" pageScale="1" pageWidth="827" pageHeight="1169" math="0" shadow="0">
      <root>
        <mxCell id="0" />
        <mxCell id="1" parent="0" />
        <mxCell id="DspnJP_ZGW3a-a2dJWn4-1" value="Outer Join ==&amp;gt; Inner Join&lt;br&gt;约束：&lt;br&gt;1. Left/Right Outer Join 上存在一个 Right/Left 表的相关谓词，注意反向。&lt;br&gt;2. 该相关谓词是一个严格谓词，也就是可以过滤掉Null的谓词，只要有一个列满足即可。&lt;br&gt;优化：严格谓词会过滤掉NULL的条件，那么就等价于Inner了" style="text;html=1;strokeColor=none;fillColor=none;align=left;verticalAlign=middle;whiteSpace=wrap;rounded=0;" vertex="1" parent="1">
          <mxGeometry x="10" y="10" width="570" height="80" as="geometry" />
        </mxCell>
        <mxCell id="DspnJP_ZGW3a-a2dJWn4-2" value="SELECT * FROM A LEFT OUTER JOIN&amp;nbsp; B&lt;br&gt;ON A.Key1 = B.Key2 WHERE B.Key2 &amp;gt; 5;" style="text;html=1;strokeColor=none;fillColor=none;align=center;verticalAlign=middle;whiteSpace=wrap;rounded=0;" vertex="1" parent="1">
          <mxGeometry x="27.5" y="100" width="330" height="40" as="geometry" />
        </mxCell>
        <mxCell id="DspnJP_ZGW3a-a2dJWn4-3" value="SELECT * FROM A INNER JOIN&amp;nbsp; B&lt;br&gt;ON A.Key1 = B.Key2 WHERE B.Key2 &amp;gt; 5;" style="text;html=1;strokeColor=none;fillColor=none;align=center;verticalAlign=middle;whiteSpace=wrap;rounded=0;" vertex="1" parent="1">
          <mxGeometry x="449" y="100" width="330" height="40" as="geometry" />
        </mxCell>
        <mxCell id="DspnJP_ZGW3a-a2dJWn4-4" value="注意，如果上述示例Where换成AND是不能转换的，因为在语义上On子句是用于补Null操作，而不是过滤。&lt;br&gt;严格谓词检查有点复杂，上述示例可以将左表相关列替换为NULL，并简化表达式，如果是 NULL 或者 False 就满足严格谓词的条件。&lt;br&gt;WHERE &lt;font color=&quot;#ff0000&quot;&gt;B.Key2&lt;/font&gt; IS NULL =&amp;gt; WHERE &lt;font color=&quot;#ff0000&quot;&gt;NULL&lt;/font&gt; IS NULL =&amp;gt; WHERE TRUE =&amp;gt; Not Strict Predicate&lt;br&gt;WHERE Case A.Key2 + 2 Then &lt;font color=&quot;#ff0000&quot;&gt;B.Key1&lt;/font&gt; When abs(&lt;font color=&quot;#ff0000&quot;&gt;B.Key2&lt;/font&gt;) * 2 Then A.Key3 End &amp;gt; &lt;font color=&quot;#ff0000&quot;&gt;B.Key3&lt;/font&gt;&amp;nbsp;=&amp;gt;&lt;br&gt;WHERE Case A.Key2 + 2 Then&amp;nbsp;&lt;font style=&quot;border-color: var(--border-color);&quot; color=&quot;#ff0000&quot;&gt;NULL&lt;/font&gt;&amp;nbsp;When abs(&lt;font style=&quot;border-color: var(--border-color);&quot; color=&quot;#ff0000&quot;&gt;NULL&lt;/font&gt;) * 2 Then A.Key3 End &amp;gt;&amp;nbsp;&lt;font style=&quot;border-color: var(--border-color);&quot; color=&quot;#ff0000&quot;&gt;NULL&lt;/font&gt;&amp;nbsp;=&amp;gt; Where NULL =&amp;gt; Strict Predicate&lt;br&gt;" style="text;html=1;strokeColor=none;fillColor=none;align=left;verticalAlign=middle;whiteSpace=wrap;rounded=0;" vertex="1" parent="1">
          <mxGeometry x="52.5" y="585" width="720" height="100" as="geometry" />
        </mxCell>
        <mxCell id="DspnJP_ZGW3a-a2dJWn4-5" value="" style="rounded=1;whiteSpace=wrap;html=1;strokeColor=#b4a996;fillColor=#56a0d3;" vertex="1" parent="1">
          <mxGeometry x="112.5" y="210" width="145" height="60" as="geometry" />
        </mxCell>
        <mxCell id="DspnJP_ZGW3a-a2dJWn4-6" value="&lt;font style=&quot;&quot;&gt;&lt;span style=&quot;font-size: 24px;&quot;&gt;Filter&lt;/span&gt;&lt;br&gt;&lt;font style=&quot;font-size: 12px;&quot;&gt;(B.Key2&amp;gt;0)&lt;/font&gt;&lt;br&gt;&lt;/font&gt;" style="text;html=1;strokeColor=none;fillColor=none;align=center;verticalAlign=middle;whiteSpace=wrap;rounded=0;" vertex="1" parent="1">
          <mxGeometry x="125" y="210" width="120" height="60" as="geometry" />
        </mxCell>
        <mxCell id="DspnJP_ZGW3a-a2dJWn4-7" value="" style="rounded=1;whiteSpace=wrap;html=1;strokeColor=#b4a996;fillColor=#56a0d3;" vertex="1" parent="1">
          <mxGeometry x="112.5" y="320" width="145" height="60" as="geometry" />
        </mxCell>
        <mxCell id="DspnJP_ZGW3a-a2dJWn4-8" value="&lt;font style=&quot;&quot;&gt;&lt;span style=&quot;font-size: 24px;&quot;&gt;Outer Join&lt;br&gt;&lt;/span&gt;(A.Key1 = B.Key2)&lt;br&gt;&lt;/font&gt;" style="text;html=1;strokeColor=none;fillColor=none;align=center;verticalAlign=middle;whiteSpace=wrap;rounded=0;" vertex="1" parent="1">
          <mxGeometry x="125" y="320" width="120" height="60" as="geometry" />
        </mxCell>
        <mxCell id="DspnJP_ZGW3a-a2dJWn4-9" value="" style="rounded=1;whiteSpace=wrap;html=1;strokeColor=#b4a996;fillColor=#56a0d3;" vertex="1" parent="1">
          <mxGeometry x="10" y="440" width="145" height="60" as="geometry" />
        </mxCell>
        <mxCell id="DspnJP_ZGW3a-a2dJWn4-10" value="&lt;font style=&quot;&quot;&gt;&lt;span style=&quot;font-size: 24px;&quot;&gt;Table A&lt;/span&gt;&lt;br&gt;&lt;/font&gt;" style="text;html=1;strokeColor=none;fillColor=none;align=center;verticalAlign=middle;whiteSpace=wrap;rounded=0;" vertex="1" parent="1">
          <mxGeometry x="22.5" y="440" width="120" height="60" as="geometry" />
        </mxCell>
        <mxCell id="DspnJP_ZGW3a-a2dJWn4-11" value="" style="rounded=1;whiteSpace=wrap;html=1;strokeColor=#b4a996;fillColor=#56a0d3;" vertex="1" parent="1">
          <mxGeometry x="215" y="440" width="145" height="60" as="geometry" />
        </mxCell>
        <mxCell id="DspnJP_ZGW3a-a2dJWn4-12" value="&lt;font style=&quot;&quot;&gt;&lt;span style=&quot;font-size: 24px;&quot;&gt;Table B&lt;/span&gt;&lt;br&gt;&lt;/font&gt;" style="text;html=1;strokeColor=none;fillColor=none;align=center;verticalAlign=middle;whiteSpace=wrap;rounded=0;" vertex="1" parent="1">
          <mxGeometry x="227.5" y="440" width="120" height="60" as="geometry" />
        </mxCell>
        <mxCell id="DspnJP_ZGW3a-a2dJWn4-13" value="" style="endArrow=classic;html=1;rounded=0;exitX=0.5;exitY=0;exitDx=0;exitDy=0;entryX=0.5;entryY=1;entryDx=0;entryDy=0;" edge="1" parent="1" source="DspnJP_ZGW3a-a2dJWn4-10" target="DspnJP_ZGW3a-a2dJWn4-8">
          <mxGeometry width="50" height="50" relative="1" as="geometry">
            <mxPoint x="402.5" y="400" as="sourcePoint" />
            <mxPoint x="452.5" y="350" as="targetPoint" />
          </mxGeometry>
        </mxCell>
        <mxCell id="DspnJP_ZGW3a-a2dJWn4-14" value="" style="endArrow=classic;html=1;rounded=0;exitX=0.5;exitY=0;exitDx=0;exitDy=0;entryX=0.5;entryY=1;entryDx=0;entryDy=0;" edge="1" parent="1" source="DspnJP_ZGW3a-a2dJWn4-12" target="DspnJP_ZGW3a-a2dJWn4-8">
          <mxGeometry width="50" height="50" relative="1" as="geometry">
            <mxPoint x="92.5" y="450" as="sourcePoint" />
            <mxPoint x="195.5" y="390" as="targetPoint" />
          </mxGeometry>
        </mxCell>
        <mxCell id="DspnJP_ZGW3a-a2dJWn4-15" value="" style="endArrow=classic;html=1;rounded=0;entryX=0.5;entryY=1;entryDx=0;entryDy=0;" edge="1" parent="1" source="DspnJP_ZGW3a-a2dJWn4-8" target="DspnJP_ZGW3a-a2dJWn4-6">
          <mxGeometry width="50" height="50" relative="1" as="geometry">
            <mxPoint x="297.5" y="450" as="sourcePoint" />
            <mxPoint x="195.5" y="390" as="targetPoint" />
          </mxGeometry>
        </mxCell>
        <mxCell id="DspnJP_ZGW3a-a2dJWn4-16" value="" style="endArrow=classic;html=1;rounded=0;exitX=0.5;exitY=0;exitDx=0;exitDy=0;" edge="1" parent="1" source="DspnJP_ZGW3a-a2dJWn4-6">
          <mxGeometry width="50" height="50" relative="1" as="geometry">
            <mxPoint x="307.5" y="460" as="sourcePoint" />
            <mxPoint x="185.5" y="170" as="targetPoint" />
          </mxGeometry>
        </mxCell>
        <mxCell id="DspnJP_ZGW3a-a2dJWn4-27" value="" style="shape=table;startSize=0;container=1;collapsible=0;childLayout=tableLayout;" vertex="1" parent="1">
          <mxGeometry x="265" y="230" width="120" height="20" as="geometry" />
        </mxCell>
        <mxCell id="DspnJP_ZGW3a-a2dJWn4-28" value="" style="shape=tableRow;horizontal=0;startSize=0;swimlaneHead=0;swimlaneBody=0;strokeColor=inherit;top=0;left=0;bottom=0;right=0;collapsible=0;dropTarget=0;fillColor=none;points=[[0,0.5],[1,0.5]];portConstraint=eastwest;" vertex="1" parent="DspnJP_ZGW3a-a2dJWn4-27">
          <mxGeometry width="120" height="20" as="geometry" />
        </mxCell>
        <mxCell id="DspnJP_ZGW3a-a2dJWn4-29" value="9" style="shape=partialRectangle;html=1;whiteSpace=wrap;connectable=0;strokeColor=inherit;overflow=hidden;fillColor=none;top=0;left=0;bottom=0;right=0;pointerEvents=1;" vertex="1" parent="DspnJP_ZGW3a-a2dJWn4-28">
          <mxGeometry width="60" height="20" as="geometry">
            <mxRectangle width="60" height="20" as="alternateBounds" />
          </mxGeometry>
        </mxCell>
        <mxCell id="DspnJP_ZGW3a-a2dJWn4-30" value="9" style="shape=partialRectangle;html=1;whiteSpace=wrap;connectable=0;strokeColor=inherit;overflow=hidden;fillColor=none;top=0;left=0;bottom=0;right=0;pointerEvents=1;" vertex="1" parent="DspnJP_ZGW3a-a2dJWn4-28">
          <mxGeometry x="60" width="60" height="20" as="geometry">
            <mxRectangle width="60" height="20" as="alternateBounds" />
          </mxGeometry>
        </mxCell>
        <mxCell id="DspnJP_ZGW3a-a2dJWn4-31" value="" style="shape=table;startSize=0;container=1;collapsible=0;childLayout=tableLayout;" vertex="1" parent="1">
          <mxGeometry x="672.5" y="330" width="120" height="40" as="geometry" />
        </mxCell>
        <mxCell id="DspnJP_ZGW3a-a2dJWn4-32" value="" style="shape=tableRow;horizontal=0;startSize=0;swimlaneHead=0;swimlaneBody=0;strokeColor=inherit;top=0;left=0;bottom=0;right=0;collapsible=0;dropTarget=0;fillColor=none;points=[[0,0.5],[1,0.5]];portConstraint=eastwest;" vertex="1" parent="DspnJP_ZGW3a-a2dJWn4-31">
          <mxGeometry width="120" height="20" as="geometry" />
        </mxCell>
        <mxCell id="DspnJP_ZGW3a-a2dJWn4-33" value="3" style="shape=partialRectangle;html=1;whiteSpace=wrap;connectable=0;strokeColor=inherit;overflow=hidden;fillColor=none;top=0;left=0;bottom=0;right=0;pointerEvents=1;" vertex="1" parent="DspnJP_ZGW3a-a2dJWn4-32">
          <mxGeometry width="60" height="20" as="geometry">
            <mxRectangle width="60" height="20" as="alternateBounds" />
          </mxGeometry>
        </mxCell>
        <mxCell id="DspnJP_ZGW3a-a2dJWn4-34" value="3" style="shape=partialRectangle;html=1;whiteSpace=wrap;connectable=0;strokeColor=inherit;overflow=hidden;fillColor=none;top=0;left=0;bottom=0;right=0;pointerEvents=1;" vertex="1" parent="DspnJP_ZGW3a-a2dJWn4-32">
          <mxGeometry x="60" width="60" height="20" as="geometry">
            <mxRectangle width="60" height="20" as="alternateBounds" />
          </mxGeometry>
        </mxCell>
        <mxCell id="DspnJP_ZGW3a-a2dJWn4-35" value="" style="shape=tableRow;horizontal=0;startSize=0;swimlaneHead=0;swimlaneBody=0;strokeColor=inherit;top=0;left=0;bottom=0;right=0;collapsible=0;dropTarget=0;fillColor=none;points=[[0,0.5],[1,0.5]];portConstraint=eastwest;" vertex="1" parent="DspnJP_ZGW3a-a2dJWn4-31">
          <mxGeometry y="20" width="120" height="20" as="geometry" />
        </mxCell>
        <mxCell id="DspnJP_ZGW3a-a2dJWn4-36" value="9" style="shape=partialRectangle;html=1;whiteSpace=wrap;connectable=0;strokeColor=inherit;overflow=hidden;fillColor=none;top=0;left=0;bottom=0;right=0;pointerEvents=1;" vertex="1" parent="DspnJP_ZGW3a-a2dJWn4-35">
          <mxGeometry width="60" height="20" as="geometry">
            <mxRectangle width="60" height="20" as="alternateBounds" />
          </mxGeometry>
        </mxCell>
        <mxCell id="DspnJP_ZGW3a-a2dJWn4-37" value="9" style="shape=partialRectangle;html=1;whiteSpace=wrap;connectable=0;strokeColor=inherit;overflow=hidden;fillColor=none;top=0;left=0;bottom=0;right=0;pointerEvents=1;" vertex="1" parent="DspnJP_ZGW3a-a2dJWn4-35">
          <mxGeometry x="60" width="60" height="20" as="geometry">
            <mxRectangle width="60" height="20" as="alternateBounds" />
          </mxGeometry>
        </mxCell>
        <mxCell id="DspnJP_ZGW3a-a2dJWn4-38" value="" style="rounded=1;whiteSpace=wrap;html=1;strokeColor=#b4a996;fillColor=#56a0d3;" vertex="1" parent="1">
          <mxGeometry x="520" y="210" width="145" height="60" as="geometry" />
        </mxCell>
        <mxCell id="DspnJP_ZGW3a-a2dJWn4-39" value="&lt;font style=&quot;&quot;&gt;&lt;span style=&quot;font-size: 24px;&quot;&gt;Filter&lt;/span&gt;&lt;br&gt;&lt;font style=&quot;font-size: 12px;&quot;&gt;(B.Key2&amp;gt;0)&lt;/font&gt;&lt;br&gt;&lt;/font&gt;" style="text;html=1;strokeColor=none;fillColor=none;align=center;verticalAlign=middle;whiteSpace=wrap;rounded=0;" vertex="1" parent="1">
          <mxGeometry x="532.5" y="210" width="120" height="60" as="geometry" />
        </mxCell>
        <mxCell id="DspnJP_ZGW3a-a2dJWn4-40" value="" style="rounded=1;whiteSpace=wrap;html=1;strokeColor=#b4a996;fillColor=#56a0d3;" vertex="1" parent="1">
          <mxGeometry x="520" y="320" width="145" height="60" as="geometry" />
        </mxCell>
        <mxCell id="DspnJP_ZGW3a-a2dJWn4-41" value="&lt;font style=&quot;&quot;&gt;&lt;span style=&quot;font-size: 24px;&quot;&gt;Inner Join&lt;br&gt;&lt;/span&gt;(A.Key1 = B.Key2)&lt;br&gt;&lt;/font&gt;" style="text;html=1;strokeColor=none;fillColor=none;align=center;verticalAlign=middle;whiteSpace=wrap;rounded=0;" vertex="1" parent="1">
          <mxGeometry x="532.5" y="320" width="120" height="60" as="geometry" />
        </mxCell>
        <mxCell id="DspnJP_ZGW3a-a2dJWn4-42" value="" style="rounded=1;whiteSpace=wrap;html=1;strokeColor=#b4a996;fillColor=#56a0d3;" vertex="1" parent="1">
          <mxGeometry x="417.5" y="440" width="145" height="60" as="geometry" />
        </mxCell>
        <mxCell id="DspnJP_ZGW3a-a2dJWn4-43" value="&lt;font style=&quot;&quot;&gt;&lt;span style=&quot;font-size: 24px;&quot;&gt;Table A&lt;/span&gt;&lt;br&gt;&lt;/font&gt;" style="text;html=1;strokeColor=none;fillColor=none;align=center;verticalAlign=middle;whiteSpace=wrap;rounded=0;" vertex="1" parent="1">
          <mxGeometry x="430" y="440" width="120" height="60" as="geometry" />
        </mxCell>
        <mxCell id="DspnJP_ZGW3a-a2dJWn4-44" value="" style="rounded=1;whiteSpace=wrap;html=1;strokeColor=#b4a996;fillColor=#56a0d3;" vertex="1" parent="1">
          <mxGeometry x="622.5" y="440" width="145" height="60" as="geometry" />
        </mxCell>
        <mxCell id="DspnJP_ZGW3a-a2dJWn4-45" value="&lt;font style=&quot;&quot;&gt;&lt;span style=&quot;font-size: 24px;&quot;&gt;Table B&lt;/span&gt;&lt;br&gt;&lt;/font&gt;" style="text;html=1;strokeColor=none;fillColor=none;align=center;verticalAlign=middle;whiteSpace=wrap;rounded=0;" vertex="1" parent="1">
          <mxGeometry x="635" y="440" width="120" height="60" as="geometry" />
        </mxCell>
        <mxCell id="DspnJP_ZGW3a-a2dJWn4-46" value="" style="endArrow=classic;html=1;rounded=0;exitX=0.5;exitY=0;exitDx=0;exitDy=0;entryX=0.5;entryY=1;entryDx=0;entryDy=0;" edge="1" parent="1" source="DspnJP_ZGW3a-a2dJWn4-43" target="DspnJP_ZGW3a-a2dJWn4-41">
          <mxGeometry width="50" height="50" relative="1" as="geometry">
            <mxPoint x="810" y="400" as="sourcePoint" />
            <mxPoint x="860" y="350" as="targetPoint" />
          </mxGeometry>
        </mxCell>
        <mxCell id="DspnJP_ZGW3a-a2dJWn4-47" value="" style="endArrow=classic;html=1;rounded=0;exitX=0.5;exitY=0;exitDx=0;exitDy=0;entryX=0.5;entryY=1;entryDx=0;entryDy=0;" edge="1" parent="1" source="DspnJP_ZGW3a-a2dJWn4-45" target="DspnJP_ZGW3a-a2dJWn4-41">
          <mxGeometry width="50" height="50" relative="1" as="geometry">
            <mxPoint x="500" y="450" as="sourcePoint" />
            <mxPoint x="603" y="390" as="targetPoint" />
          </mxGeometry>
        </mxCell>
        <mxCell id="DspnJP_ZGW3a-a2dJWn4-48" value="" style="endArrow=classic;html=1;rounded=0;entryX=0.5;entryY=1;entryDx=0;entryDy=0;" edge="1" parent="1" source="DspnJP_ZGW3a-a2dJWn4-41" target="DspnJP_ZGW3a-a2dJWn4-39">
          <mxGeometry width="50" height="50" relative="1" as="geometry">
            <mxPoint x="705" y="450" as="sourcePoint" />
            <mxPoint x="603" y="390" as="targetPoint" />
          </mxGeometry>
        </mxCell>
        <mxCell id="DspnJP_ZGW3a-a2dJWn4-49" value="" style="endArrow=classic;html=1;rounded=0;exitX=0.5;exitY=0;exitDx=0;exitDy=0;" edge="1" parent="1" source="DspnJP_ZGW3a-a2dJWn4-39">
          <mxGeometry width="50" height="50" relative="1" as="geometry">
            <mxPoint x="715" y="460" as="sourcePoint" />
            <mxPoint x="593" y="170" as="targetPoint" />
          </mxGeometry>
        </mxCell>
        <mxCell id="DspnJP_ZGW3a-a2dJWn4-60" value="" style="shape=table;startSize=0;container=1;collapsible=0;childLayout=tableLayout;" vertex="1" parent="1">
          <mxGeometry x="672.5" y="230" width="120" height="20" as="geometry" />
        </mxCell>
        <mxCell id="DspnJP_ZGW3a-a2dJWn4-61" value="" style="shape=tableRow;horizontal=0;startSize=0;swimlaneHead=0;swimlaneBody=0;strokeColor=inherit;top=0;left=0;bottom=0;right=0;collapsible=0;dropTarget=0;fillColor=none;points=[[0,0.5],[1,0.5]];portConstraint=eastwest;" vertex="1" parent="DspnJP_ZGW3a-a2dJWn4-60">
          <mxGeometry width="120" height="20" as="geometry" />
        </mxCell>
        <mxCell id="DspnJP_ZGW3a-a2dJWn4-62" value="9" style="shape=partialRectangle;html=1;whiteSpace=wrap;connectable=0;strokeColor=inherit;overflow=hidden;fillColor=none;top=0;left=0;bottom=0;right=0;pointerEvents=1;" vertex="1" parent="DspnJP_ZGW3a-a2dJWn4-61">
          <mxGeometry width="60" height="20" as="geometry">
            <mxRectangle width="60" height="20" as="alternateBounds" />
          </mxGeometry>
        </mxCell>
        <mxCell id="DspnJP_ZGW3a-a2dJWn4-63" value="9" style="shape=partialRectangle;html=1;whiteSpace=wrap;connectable=0;strokeColor=inherit;overflow=hidden;fillColor=none;top=0;left=0;bottom=0;right=0;pointerEvents=1;" vertex="1" parent="DspnJP_ZGW3a-a2dJWn4-61">
          <mxGeometry x="60" width="60" height="20" as="geometry">
            <mxRectangle width="60" height="20" as="alternateBounds" />
          </mxGeometry>
        </mxCell>
        <mxCell id="DspnJP_ZGW3a-a2dJWn4-68" value="" style="shape=table;startSize=0;container=1;collapsible=0;childLayout=tableLayout;" vertex="1" parent="1">
          <mxGeometry x="52.5" y="510" width="60" height="60" as="geometry" />
        </mxCell>
        <mxCell id="DspnJP_ZGW3a-a2dJWn4-69" value="" style="shape=tableRow;horizontal=0;startSize=0;swimlaneHead=0;swimlaneBody=0;strokeColor=inherit;top=0;left=0;bottom=0;right=0;collapsible=0;dropTarget=0;fillColor=none;points=[[0,0.5],[1,0.5]];portConstraint=eastwest;" vertex="1" parent="DspnJP_ZGW3a-a2dJWn4-68">
          <mxGeometry width="60" height="20" as="geometry" />
        </mxCell>
        <mxCell id="DspnJP_ZGW3a-a2dJWn4-70" value="3" style="shape=partialRectangle;html=1;whiteSpace=wrap;connectable=0;strokeColor=inherit;overflow=hidden;fillColor=none;top=0;left=0;bottom=0;right=0;pointerEvents=1;" vertex="1" parent="DspnJP_ZGW3a-a2dJWn4-69">
          <mxGeometry width="60" height="20" as="geometry">
            <mxRectangle width="60" height="20" as="alternateBounds" />
          </mxGeometry>
        </mxCell>
        <mxCell id="DspnJP_ZGW3a-a2dJWn4-71" value="" style="shape=tableRow;horizontal=0;startSize=0;swimlaneHead=0;swimlaneBody=0;strokeColor=inherit;top=0;left=0;bottom=0;right=0;collapsible=0;dropTarget=0;fillColor=none;points=[[0,0.5],[1,0.5]];portConstraint=eastwest;" vertex="1" parent="DspnJP_ZGW3a-a2dJWn4-68">
          <mxGeometry y="20" width="60" height="20" as="geometry" />
        </mxCell>
        <mxCell id="DspnJP_ZGW3a-a2dJWn4-72" value="6" style="shape=partialRectangle;html=1;whiteSpace=wrap;connectable=0;strokeColor=inherit;overflow=hidden;fillColor=none;top=0;left=0;bottom=0;right=0;pointerEvents=1;" vertex="1" parent="DspnJP_ZGW3a-a2dJWn4-71">
          <mxGeometry width="60" height="20" as="geometry">
            <mxRectangle width="60" height="20" as="alternateBounds" />
          </mxGeometry>
        </mxCell>
        <mxCell id="DspnJP_ZGW3a-a2dJWn4-73" value="" style="shape=tableRow;horizontal=0;startSize=0;swimlaneHead=0;swimlaneBody=0;strokeColor=inherit;top=0;left=0;bottom=0;right=0;collapsible=0;dropTarget=0;fillColor=none;points=[[0,0.5],[1,0.5]];portConstraint=eastwest;" vertex="1" parent="DspnJP_ZGW3a-a2dJWn4-68">
          <mxGeometry y="40" width="60" height="20" as="geometry" />
        </mxCell>
        <mxCell id="DspnJP_ZGW3a-a2dJWn4-74" value="9" style="shape=partialRectangle;html=1;whiteSpace=wrap;connectable=0;strokeColor=inherit;overflow=hidden;fillColor=none;top=0;left=0;bottom=0;right=0;pointerEvents=1;" vertex="1" parent="DspnJP_ZGW3a-a2dJWn4-73">
          <mxGeometry width="60" height="20" as="geometry">
            <mxRectangle width="60" height="20" as="alternateBounds" />
          </mxGeometry>
        </mxCell>
        <mxCell id="DspnJP_ZGW3a-a2dJWn4-75" value="" style="shape=table;startSize=0;container=1;collapsible=0;childLayout=tableLayout;" vertex="1" parent="1">
          <mxGeometry x="257.5" y="510" width="60" height="60" as="geometry" />
        </mxCell>
        <mxCell id="DspnJP_ZGW3a-a2dJWn4-76" value="" style="shape=tableRow;horizontal=0;startSize=0;swimlaneHead=0;swimlaneBody=0;strokeColor=inherit;top=0;left=0;bottom=0;right=0;collapsible=0;dropTarget=0;fillColor=none;points=[[0,0.5],[1,0.5]];portConstraint=eastwest;" vertex="1" parent="DspnJP_ZGW3a-a2dJWn4-75">
          <mxGeometry width="60" height="20" as="geometry" />
        </mxCell>
        <mxCell id="DspnJP_ZGW3a-a2dJWn4-77" value="3" style="shape=partialRectangle;html=1;whiteSpace=wrap;connectable=0;strokeColor=inherit;overflow=hidden;fillColor=none;top=0;left=0;bottom=0;right=0;pointerEvents=1;" vertex="1" parent="DspnJP_ZGW3a-a2dJWn4-76">
          <mxGeometry width="60" height="20" as="geometry">
            <mxRectangle width="60" height="20" as="alternateBounds" />
          </mxGeometry>
        </mxCell>
        <mxCell id="DspnJP_ZGW3a-a2dJWn4-78" value="" style="shape=tableRow;horizontal=0;startSize=0;swimlaneHead=0;swimlaneBody=0;strokeColor=inherit;top=0;left=0;bottom=0;right=0;collapsible=0;dropTarget=0;fillColor=none;points=[[0,0.5],[1,0.5]];portConstraint=eastwest;" vertex="1" parent="DspnJP_ZGW3a-a2dJWn4-75">
          <mxGeometry y="20" width="60" height="20" as="geometry" />
        </mxCell>
        <mxCell id="DspnJP_ZGW3a-a2dJWn4-79" value="7" style="shape=partialRectangle;html=1;whiteSpace=wrap;connectable=0;strokeColor=inherit;overflow=hidden;fillColor=none;top=0;left=0;bottom=0;right=0;pointerEvents=1;" vertex="1" parent="DspnJP_ZGW3a-a2dJWn4-78">
          <mxGeometry width="60" height="20" as="geometry">
            <mxRectangle width="60" height="20" as="alternateBounds" />
          </mxGeometry>
        </mxCell>
        <mxCell id="DspnJP_ZGW3a-a2dJWn4-80" value="" style="shape=tableRow;horizontal=0;startSize=0;swimlaneHead=0;swimlaneBody=0;strokeColor=inherit;top=0;left=0;bottom=0;right=0;collapsible=0;dropTarget=0;fillColor=none;points=[[0,0.5],[1,0.5]];portConstraint=eastwest;" vertex="1" parent="DspnJP_ZGW3a-a2dJWn4-75">
          <mxGeometry y="40" width="60" height="20" as="geometry" />
        </mxCell>
        <mxCell id="DspnJP_ZGW3a-a2dJWn4-81" value="9" style="shape=partialRectangle;html=1;whiteSpace=wrap;connectable=0;strokeColor=inherit;overflow=hidden;fillColor=none;top=0;left=0;bottom=0;right=0;pointerEvents=1;" vertex="1" parent="DspnJP_ZGW3a-a2dJWn4-80">
          <mxGeometry width="60" height="20" as="geometry">
            <mxRectangle width="60" height="20" as="alternateBounds" />
          </mxGeometry>
        </mxCell>
        <mxCell id="DspnJP_ZGW3a-a2dJWn4-82" value="" style="shape=table;startSize=0;container=1;collapsible=0;childLayout=tableLayout;" vertex="1" parent="1">
          <mxGeometry x="265" y="320" width="120" height="60" as="geometry" />
        </mxCell>
        <mxCell id="DspnJP_ZGW3a-a2dJWn4-83" value="" style="shape=tableRow;horizontal=0;startSize=0;swimlaneHead=0;swimlaneBody=0;strokeColor=inherit;top=0;left=0;bottom=0;right=0;collapsible=0;dropTarget=0;fillColor=none;points=[[0,0.5],[1,0.5]];portConstraint=eastwest;" vertex="1" parent="DspnJP_ZGW3a-a2dJWn4-82">
          <mxGeometry width="120" height="20" as="geometry" />
        </mxCell>
        <mxCell id="DspnJP_ZGW3a-a2dJWn4-84" value="3" style="shape=partialRectangle;html=1;whiteSpace=wrap;connectable=0;strokeColor=inherit;overflow=hidden;fillColor=none;top=0;left=0;bottom=0;right=0;pointerEvents=1;" vertex="1" parent="DspnJP_ZGW3a-a2dJWn4-83">
          <mxGeometry width="60" height="20" as="geometry">
            <mxRectangle width="60" height="20" as="alternateBounds" />
          </mxGeometry>
        </mxCell>
        <mxCell id="DspnJP_ZGW3a-a2dJWn4-85" value="3" style="shape=partialRectangle;html=1;whiteSpace=wrap;connectable=0;strokeColor=inherit;overflow=hidden;fillColor=none;top=0;left=0;bottom=0;right=0;pointerEvents=1;" vertex="1" parent="DspnJP_ZGW3a-a2dJWn4-83">
          <mxGeometry x="60" width="60" height="20" as="geometry">
            <mxRectangle width="60" height="20" as="alternateBounds" />
          </mxGeometry>
        </mxCell>
        <mxCell id="DspnJP_ZGW3a-a2dJWn4-86" value="" style="shape=tableRow;horizontal=0;startSize=0;swimlaneHead=0;swimlaneBody=0;strokeColor=inherit;top=0;left=0;bottom=0;right=0;collapsible=0;dropTarget=0;fillColor=none;points=[[0,0.5],[1,0.5]];portConstraint=eastwest;" vertex="1" parent="DspnJP_ZGW3a-a2dJWn4-82">
          <mxGeometry y="20" width="120" height="20" as="geometry" />
        </mxCell>
        <mxCell id="DspnJP_ZGW3a-a2dJWn4-87" value="6" style="shape=partialRectangle;html=1;whiteSpace=wrap;connectable=0;strokeColor=inherit;overflow=hidden;fillColor=none;top=0;left=0;bottom=0;right=0;pointerEvents=1;" vertex="1" parent="DspnJP_ZGW3a-a2dJWn4-86">
          <mxGeometry width="60" height="20" as="geometry">
            <mxRectangle width="60" height="20" as="alternateBounds" />
          </mxGeometry>
        </mxCell>
        <mxCell id="DspnJP_ZGW3a-a2dJWn4-88" value="NULL" style="shape=partialRectangle;html=1;whiteSpace=wrap;connectable=0;strokeColor=inherit;overflow=hidden;fillColor=none;top=0;left=0;bottom=0;right=0;pointerEvents=1;" vertex="1" parent="DspnJP_ZGW3a-a2dJWn4-86">
          <mxGeometry x="60" width="60" height="20" as="geometry">
            <mxRectangle width="60" height="20" as="alternateBounds" />
          </mxGeometry>
        </mxCell>
        <mxCell id="DspnJP_ZGW3a-a2dJWn4-89" value="" style="shape=tableRow;horizontal=0;startSize=0;swimlaneHead=0;swimlaneBody=0;strokeColor=inherit;top=0;left=0;bottom=0;right=0;collapsible=0;dropTarget=0;fillColor=none;points=[[0,0.5],[1,0.5]];portConstraint=eastwest;" vertex="1" parent="DspnJP_ZGW3a-a2dJWn4-82">
          <mxGeometry y="40" width="120" height="20" as="geometry" />
        </mxCell>
        <mxCell id="DspnJP_ZGW3a-a2dJWn4-90" value="9" style="shape=partialRectangle;html=1;whiteSpace=wrap;connectable=0;strokeColor=inherit;overflow=hidden;fillColor=none;top=0;left=0;bottom=0;right=0;pointerEvents=1;" vertex="1" parent="DspnJP_ZGW3a-a2dJWn4-89">
          <mxGeometry width="60" height="20" as="geometry">
            <mxRectangle width="60" height="20" as="alternateBounds" />
          </mxGeometry>
        </mxCell>
        <mxCell id="DspnJP_ZGW3a-a2dJWn4-91" value="9" style="shape=partialRectangle;html=1;whiteSpace=wrap;connectable=0;strokeColor=inherit;overflow=hidden;fillColor=none;top=0;left=0;bottom=0;right=0;pointerEvents=1;" vertex="1" parent="DspnJP_ZGW3a-a2dJWn4-89">
          <mxGeometry x="60" width="60" height="20" as="geometry">
            <mxRectangle width="60" height="20" as="alternateBounds" />
          </mxGeometry>
        </mxCell>
        <mxCell id="DspnJP_ZGW3a-a2dJWn4-92" value="" style="shape=table;startSize=0;container=1;collapsible=0;childLayout=tableLayout;" vertex="1" parent="1">
          <mxGeometry x="460" y="510" width="60" height="60" as="geometry" />
        </mxCell>
        <mxCell id="DspnJP_ZGW3a-a2dJWn4-93" value="" style="shape=tableRow;horizontal=0;startSize=0;swimlaneHead=0;swimlaneBody=0;strokeColor=inherit;top=0;left=0;bottom=0;right=0;collapsible=0;dropTarget=0;fillColor=none;points=[[0,0.5],[1,0.5]];portConstraint=eastwest;" vertex="1" parent="DspnJP_ZGW3a-a2dJWn4-92">
          <mxGeometry width="60" height="20" as="geometry" />
        </mxCell>
        <mxCell id="DspnJP_ZGW3a-a2dJWn4-94" value="3" style="shape=partialRectangle;html=1;whiteSpace=wrap;connectable=0;strokeColor=inherit;overflow=hidden;fillColor=none;top=0;left=0;bottom=0;right=0;pointerEvents=1;" vertex="1" parent="DspnJP_ZGW3a-a2dJWn4-93">
          <mxGeometry width="60" height="20" as="geometry">
            <mxRectangle width="60" height="20" as="alternateBounds" />
          </mxGeometry>
        </mxCell>
        <mxCell id="DspnJP_ZGW3a-a2dJWn4-95" value="" style="shape=tableRow;horizontal=0;startSize=0;swimlaneHead=0;swimlaneBody=0;strokeColor=inherit;top=0;left=0;bottom=0;right=0;collapsible=0;dropTarget=0;fillColor=none;points=[[0,0.5],[1,0.5]];portConstraint=eastwest;" vertex="1" parent="DspnJP_ZGW3a-a2dJWn4-92">
          <mxGeometry y="20" width="60" height="20" as="geometry" />
        </mxCell>
        <mxCell id="DspnJP_ZGW3a-a2dJWn4-96" value="6" style="shape=partialRectangle;html=1;whiteSpace=wrap;connectable=0;strokeColor=inherit;overflow=hidden;fillColor=none;top=0;left=0;bottom=0;right=0;pointerEvents=1;" vertex="1" parent="DspnJP_ZGW3a-a2dJWn4-95">
          <mxGeometry width="60" height="20" as="geometry">
            <mxRectangle width="60" height="20" as="alternateBounds" />
          </mxGeometry>
        </mxCell>
        <mxCell id="DspnJP_ZGW3a-a2dJWn4-97" value="" style="shape=tableRow;horizontal=0;startSize=0;swimlaneHead=0;swimlaneBody=0;strokeColor=inherit;top=0;left=0;bottom=0;right=0;collapsible=0;dropTarget=0;fillColor=none;points=[[0,0.5],[1,0.5]];portConstraint=eastwest;" vertex="1" parent="DspnJP_ZGW3a-a2dJWn4-92">
          <mxGeometry y="40" width="60" height="20" as="geometry" />
        </mxCell>
        <mxCell id="DspnJP_ZGW3a-a2dJWn4-98" value="9" style="shape=partialRectangle;html=1;whiteSpace=wrap;connectable=0;strokeColor=inherit;overflow=hidden;fillColor=none;top=0;left=0;bottom=0;right=0;pointerEvents=1;" vertex="1" parent="DspnJP_ZGW3a-a2dJWn4-97">
          <mxGeometry width="60" height="20" as="geometry">
            <mxRectangle width="60" height="20" as="alternateBounds" />
          </mxGeometry>
        </mxCell>
        <mxCell id="DspnJP_ZGW3a-a2dJWn4-99" value="" style="shape=table;startSize=0;container=1;collapsible=0;childLayout=tableLayout;" vertex="1" parent="1">
          <mxGeometry x="665" y="510" width="60" height="60" as="geometry" />
        </mxCell>
        <mxCell id="DspnJP_ZGW3a-a2dJWn4-100" value="" style="shape=tableRow;horizontal=0;startSize=0;swimlaneHead=0;swimlaneBody=0;strokeColor=inherit;top=0;left=0;bottom=0;right=0;collapsible=0;dropTarget=0;fillColor=none;points=[[0,0.5],[1,0.5]];portConstraint=eastwest;" vertex="1" parent="DspnJP_ZGW3a-a2dJWn4-99">
          <mxGeometry width="60" height="20" as="geometry" />
        </mxCell>
        <mxCell id="DspnJP_ZGW3a-a2dJWn4-101" value="3" style="shape=partialRectangle;html=1;whiteSpace=wrap;connectable=0;strokeColor=inherit;overflow=hidden;fillColor=none;top=0;left=0;bottom=0;right=0;pointerEvents=1;" vertex="1" parent="DspnJP_ZGW3a-a2dJWn4-100">
          <mxGeometry width="60" height="20" as="geometry">
            <mxRectangle width="60" height="20" as="alternateBounds" />
          </mxGeometry>
        </mxCell>
        <mxCell id="DspnJP_ZGW3a-a2dJWn4-102" value="" style="shape=tableRow;horizontal=0;startSize=0;swimlaneHead=0;swimlaneBody=0;strokeColor=inherit;top=0;left=0;bottom=0;right=0;collapsible=0;dropTarget=0;fillColor=none;points=[[0,0.5],[1,0.5]];portConstraint=eastwest;" vertex="1" parent="DspnJP_ZGW3a-a2dJWn4-99">
          <mxGeometry y="20" width="60" height="20" as="geometry" />
        </mxCell>
        <mxCell id="DspnJP_ZGW3a-a2dJWn4-103" value="7" style="shape=partialRectangle;html=1;whiteSpace=wrap;connectable=0;strokeColor=inherit;overflow=hidden;fillColor=none;top=0;left=0;bottom=0;right=0;pointerEvents=1;" vertex="1" parent="DspnJP_ZGW3a-a2dJWn4-102">
          <mxGeometry width="60" height="20" as="geometry">
            <mxRectangle width="60" height="20" as="alternateBounds" />
          </mxGeometry>
        </mxCell>
        <mxCell id="DspnJP_ZGW3a-a2dJWn4-104" value="" style="shape=tableRow;horizontal=0;startSize=0;swimlaneHead=0;swimlaneBody=0;strokeColor=inherit;top=0;left=0;bottom=0;right=0;collapsible=0;dropTarget=0;fillColor=none;points=[[0,0.5],[1,0.5]];portConstraint=eastwest;" vertex="1" parent="DspnJP_ZGW3a-a2dJWn4-99">
          <mxGeometry y="40" width="60" height="20" as="geometry" />
        </mxCell>
        <mxCell id="DspnJP_ZGW3a-a2dJWn4-105" value="9" style="shape=partialRectangle;html=1;whiteSpace=wrap;connectable=0;strokeColor=inherit;overflow=hidden;fillColor=none;top=0;left=0;bottom=0;right=0;pointerEvents=1;" vertex="1" parent="DspnJP_ZGW3a-a2dJWn4-104">
          <mxGeometry width="60" height="20" as="geometry">
            <mxRectangle width="60" height="20" as="alternateBounds" />
          </mxGeometry>
        </mxCell>
        <mxCell id="DspnJP_ZGW3a-a2dJWn4-116" value="Full Outer Join ==&amp;gt; Left/Right Outer Join&lt;br&gt;约束：在左表或者右表存在一个严格谓词。&lt;br&gt;优化：跟上述的优化条件一样，严格谓词会过滤掉NULL的条件，那么就等价于Left/Right Outer Join了" style="text;html=1;strokeColor=none;fillColor=none;align=left;verticalAlign=middle;whiteSpace=wrap;rounded=0;" vertex="1" parent="1">
          <mxGeometry x="65" y="750" width="570" height="80" as="geometry" />
        </mxCell>
        <mxCell id="DspnJP_ZGW3a-a2dJWn4-117" value="" style="rounded=1;whiteSpace=wrap;html=1;strokeColor=#b4a996;fillColor=#56a0d3;" vertex="1" parent="1">
          <mxGeometry x="130" y="940" width="145" height="60" as="geometry" />
        </mxCell>
        <mxCell id="DspnJP_ZGW3a-a2dJWn4-118" value="&lt;font style=&quot;&quot;&gt;&lt;span style=&quot;font-size: 24px;&quot;&gt;Filter&lt;/span&gt;&lt;br&gt;&lt;font style=&quot;font-size: 12px;&quot;&gt;(A.Key1 &amp;gt; 0)&lt;/font&gt;&lt;br&gt;&lt;/font&gt;" style="text;html=1;strokeColor=none;fillColor=none;align=center;verticalAlign=middle;whiteSpace=wrap;rounded=0;" vertex="1" parent="1">
          <mxGeometry x="142.5" y="940" width="120" height="60" as="geometry" />
        </mxCell>
        <mxCell id="DspnJP_ZGW3a-a2dJWn4-119" value="SELECT * FROM A FULL OUTER JOIN B&lt;br&gt;ON A.Key1 = B.Key2 WHERE A.Key1 &amp;gt; 0;" style="text;html=1;strokeColor=none;fillColor=none;align=center;verticalAlign=middle;whiteSpace=wrap;rounded=0;" vertex="1" parent="1">
          <mxGeometry x="57.5" y="850" width="330" height="40" as="geometry" />
        </mxCell>
        <mxCell id="DspnJP_ZGW3a-a2dJWn4-120" value="SELECT * FROM A LEFT OUTER JOIN B&lt;br style=&quot;border-color: var(--border-color);&quot;&gt;ON A.Key1 = B.Key2 WHERE A.Key1 &amp;gt; 0;" style="text;html=1;strokeColor=none;fillColor=none;align=center;verticalAlign=middle;whiteSpace=wrap;rounded=0;" vertex="1" parent="1">
          <mxGeometry x="421.5" y="850" width="380" height="40" as="geometry" />
        </mxCell>
        <mxCell id="DspnJP_ZGW3a-a2dJWn4-121" value="" style="rounded=1;whiteSpace=wrap;html=1;strokeColor=#b4a996;fillColor=#56a0d3;" vertex="1" parent="1">
          <mxGeometry x="115" y="1050" width="175" height="60" as="geometry" />
        </mxCell>
        <mxCell id="DspnJP_ZGW3a-a2dJWn4-122" value="&lt;font style=&quot;&quot;&gt;&lt;span style=&quot;font-size: 24px;&quot;&gt;Full Outer Join&lt;br&gt;&lt;/span&gt;(A.Key1 = B.Key2)&lt;br&gt;&lt;/font&gt;" style="text;html=1;strokeColor=none;fillColor=none;align=center;verticalAlign=middle;whiteSpace=wrap;rounded=0;" vertex="1" parent="1">
          <mxGeometry x="117.5" y="1050" width="170" height="60" as="geometry" />
        </mxCell>
        <mxCell id="DspnJP_ZGW3a-a2dJWn4-123" value="" style="rounded=1;whiteSpace=wrap;html=1;strokeColor=#b4a996;fillColor=#56a0d3;" vertex="1" parent="1">
          <mxGeometry x="27.5" y="1170" width="145" height="60" as="geometry" />
        </mxCell>
        <mxCell id="DspnJP_ZGW3a-a2dJWn4-124" value="&lt;font style=&quot;&quot;&gt;&lt;span style=&quot;font-size: 24px;&quot;&gt;Table A&lt;/span&gt;&lt;br&gt;&lt;/font&gt;" style="text;html=1;strokeColor=none;fillColor=none;align=center;verticalAlign=middle;whiteSpace=wrap;rounded=0;" vertex="1" parent="1">
          <mxGeometry x="40" y="1170" width="120" height="60" as="geometry" />
        </mxCell>
        <mxCell id="DspnJP_ZGW3a-a2dJWn4-125" value="" style="rounded=1;whiteSpace=wrap;html=1;strokeColor=#b4a996;fillColor=#56a0d3;" vertex="1" parent="1">
          <mxGeometry x="232.5" y="1170" width="145" height="60" as="geometry" />
        </mxCell>
        <mxCell id="DspnJP_ZGW3a-a2dJWn4-126" value="&lt;font style=&quot;&quot;&gt;&lt;span style=&quot;font-size: 24px;&quot;&gt;Table B&lt;/span&gt;&lt;br&gt;&lt;/font&gt;" style="text;html=1;strokeColor=none;fillColor=none;align=center;verticalAlign=middle;whiteSpace=wrap;rounded=0;" vertex="1" parent="1">
          <mxGeometry x="245" y="1170" width="120" height="60" as="geometry" />
        </mxCell>
        <mxCell id="DspnJP_ZGW3a-a2dJWn4-127" value="" style="endArrow=classic;html=1;rounded=0;exitX=0.5;exitY=0;exitDx=0;exitDy=0;entryX=0.5;entryY=1;entryDx=0;entryDy=0;" edge="1" parent="1" source="DspnJP_ZGW3a-a2dJWn4-124" target="DspnJP_ZGW3a-a2dJWn4-122">
          <mxGeometry width="50" height="50" relative="1" as="geometry">
            <mxPoint x="420" y="1130" as="sourcePoint" />
            <mxPoint x="470" y="1080" as="targetPoint" />
          </mxGeometry>
        </mxCell>
        <mxCell id="DspnJP_ZGW3a-a2dJWn4-128" value="" style="endArrow=classic;html=1;rounded=0;exitX=0.5;exitY=0;exitDx=0;exitDy=0;entryX=0.5;entryY=1;entryDx=0;entryDy=0;" edge="1" parent="1" source="DspnJP_ZGW3a-a2dJWn4-126" target="DspnJP_ZGW3a-a2dJWn4-122">
          <mxGeometry width="50" height="50" relative="1" as="geometry">
            <mxPoint x="110" y="1180" as="sourcePoint" />
            <mxPoint x="213" y="1120" as="targetPoint" />
          </mxGeometry>
        </mxCell>
        <mxCell id="DspnJP_ZGW3a-a2dJWn4-129" value="" style="endArrow=classic;html=1;rounded=0;entryX=0.5;entryY=1;entryDx=0;entryDy=0;" edge="1" parent="1" source="DspnJP_ZGW3a-a2dJWn4-122" target="DspnJP_ZGW3a-a2dJWn4-118">
          <mxGeometry width="50" height="50" relative="1" as="geometry">
            <mxPoint x="315" y="1180" as="sourcePoint" />
            <mxPoint x="213" y="1120" as="targetPoint" />
          </mxGeometry>
        </mxCell>
        <mxCell id="DspnJP_ZGW3a-a2dJWn4-130" value="" style="endArrow=classic;html=1;rounded=0;exitX=0.5;exitY=0;exitDx=0;exitDy=0;" edge="1" parent="1" source="DspnJP_ZGW3a-a2dJWn4-118">
          <mxGeometry width="50" height="50" relative="1" as="geometry">
            <mxPoint x="325" y="1190" as="sourcePoint" />
            <mxPoint x="203" y="900" as="targetPoint" />
          </mxGeometry>
        </mxCell>
        <mxCell id="DspnJP_ZGW3a-a2dJWn4-140" value="" style="shape=table;startSize=0;container=1;collapsible=0;childLayout=tableLayout;" vertex="1" parent="1">
          <mxGeometry x="57.5" y="1240" width="60" height="40" as="geometry" />
        </mxCell>
        <mxCell id="DspnJP_ZGW3a-a2dJWn4-141" value="" style="shape=tableRow;horizontal=0;startSize=0;swimlaneHead=0;swimlaneBody=0;strokeColor=inherit;top=0;left=0;bottom=0;right=0;collapsible=0;dropTarget=0;fillColor=none;points=[[0,0.5],[1,0.5]];portConstraint=eastwest;" vertex="1" parent="DspnJP_ZGW3a-a2dJWn4-140">
          <mxGeometry width="60" height="20" as="geometry" />
        </mxCell>
        <mxCell id="DspnJP_ZGW3a-a2dJWn4-142" value="3" style="shape=partialRectangle;html=1;whiteSpace=wrap;connectable=0;strokeColor=inherit;overflow=hidden;fillColor=none;top=0;left=0;bottom=0;right=0;pointerEvents=1;" vertex="1" parent="DspnJP_ZGW3a-a2dJWn4-141">
          <mxGeometry width="60" height="20" as="geometry">
            <mxRectangle width="60" height="20" as="alternateBounds" />
          </mxGeometry>
        </mxCell>
        <mxCell id="DspnJP_ZGW3a-a2dJWn4-143" value="" style="shape=tableRow;horizontal=0;startSize=0;swimlaneHead=0;swimlaneBody=0;strokeColor=inherit;top=0;left=0;bottom=0;right=0;collapsible=0;dropTarget=0;fillColor=none;points=[[0,0.5],[1,0.5]];portConstraint=eastwest;" vertex="1" parent="DspnJP_ZGW3a-a2dJWn4-140">
          <mxGeometry y="20" width="60" height="20" as="geometry" />
        </mxCell>
        <mxCell id="DspnJP_ZGW3a-a2dJWn4-144" value="9" style="shape=partialRectangle;html=1;whiteSpace=wrap;connectable=0;strokeColor=inherit;overflow=hidden;fillColor=none;top=0;left=0;bottom=0;right=0;pointerEvents=1;" vertex="1" parent="DspnJP_ZGW3a-a2dJWn4-143">
          <mxGeometry width="60" height="20" as="geometry">
            <mxRectangle width="60" height="20" as="alternateBounds" />
          </mxGeometry>
        </mxCell>
        <mxCell id="DspnJP_ZGW3a-a2dJWn4-145" value="" style="shape=table;startSize=0;container=1;collapsible=0;childLayout=tableLayout;" vertex="1" parent="1">
          <mxGeometry x="275" y="1240" width="60" height="40" as="geometry" />
        </mxCell>
        <mxCell id="DspnJP_ZGW3a-a2dJWn4-146" value="" style="shape=tableRow;horizontal=0;startSize=0;swimlaneHead=0;swimlaneBody=0;strokeColor=inherit;top=0;left=0;bottom=0;right=0;collapsible=0;dropTarget=0;fillColor=none;points=[[0,0.5],[1,0.5]];portConstraint=eastwest;" vertex="1" parent="DspnJP_ZGW3a-a2dJWn4-145">
          <mxGeometry width="60" height="20" as="geometry" />
        </mxCell>
        <mxCell id="DspnJP_ZGW3a-a2dJWn4-147" value="6" style="shape=partialRectangle;html=1;whiteSpace=wrap;connectable=0;strokeColor=inherit;overflow=hidden;fillColor=none;top=0;left=0;bottom=0;right=0;pointerEvents=1;" vertex="1" parent="DspnJP_ZGW3a-a2dJWn4-146">
          <mxGeometry width="60" height="20" as="geometry">
            <mxRectangle width="60" height="20" as="alternateBounds" />
          </mxGeometry>
        </mxCell>
        <mxCell id="DspnJP_ZGW3a-a2dJWn4-148" value="" style="shape=tableRow;horizontal=0;startSize=0;swimlaneHead=0;swimlaneBody=0;strokeColor=inherit;top=0;left=0;bottom=0;right=0;collapsible=0;dropTarget=0;fillColor=none;points=[[0,0.5],[1,0.5]];portConstraint=eastwest;" vertex="1" parent="DspnJP_ZGW3a-a2dJWn4-145">
          <mxGeometry y="20" width="60" height="20" as="geometry" />
        </mxCell>
        <mxCell id="DspnJP_ZGW3a-a2dJWn4-149" value="9" style="shape=partialRectangle;html=1;whiteSpace=wrap;connectable=0;strokeColor=inherit;overflow=hidden;fillColor=none;top=0;left=0;bottom=0;right=0;pointerEvents=1;" vertex="1" parent="DspnJP_ZGW3a-a2dJWn4-148">
          <mxGeometry width="60" height="20" as="geometry">
            <mxRectangle width="60" height="20" as="alternateBounds" />
          </mxGeometry>
        </mxCell>
        <mxCell id="DspnJP_ZGW3a-a2dJWn4-183" value="" style="shape=table;startSize=0;container=1;collapsible=0;childLayout=tableLayout;" vertex="1" parent="1">
          <mxGeometry x="301.5" y="1050" width="120" height="60" as="geometry" />
        </mxCell>
        <mxCell id="DspnJP_ZGW3a-a2dJWn4-184" value="" style="shape=tableRow;horizontal=0;startSize=0;swimlaneHead=0;swimlaneBody=0;strokeColor=inherit;top=0;left=0;bottom=0;right=0;collapsible=0;dropTarget=0;fillColor=none;points=[[0,0.5],[1,0.5]];portConstraint=eastwest;" vertex="1" parent="DspnJP_ZGW3a-a2dJWn4-183">
          <mxGeometry width="120" height="20" as="geometry" />
        </mxCell>
        <mxCell id="DspnJP_ZGW3a-a2dJWn4-185" value="3" style="shape=partialRectangle;html=1;whiteSpace=wrap;connectable=0;strokeColor=inherit;overflow=hidden;fillColor=none;top=0;left=0;bottom=0;right=0;pointerEvents=1;" vertex="1" parent="DspnJP_ZGW3a-a2dJWn4-184">
          <mxGeometry width="60" height="20" as="geometry">
            <mxRectangle width="60" height="20" as="alternateBounds" />
          </mxGeometry>
        </mxCell>
        <mxCell id="DspnJP_ZGW3a-a2dJWn4-186" value="NULL" style="shape=partialRectangle;html=1;whiteSpace=wrap;connectable=0;strokeColor=inherit;overflow=hidden;fillColor=none;top=0;left=0;bottom=0;right=0;pointerEvents=1;" vertex="1" parent="DspnJP_ZGW3a-a2dJWn4-184">
          <mxGeometry x="60" width="60" height="20" as="geometry">
            <mxRectangle width="60" height="20" as="alternateBounds" />
          </mxGeometry>
        </mxCell>
        <mxCell id="DspnJP_ZGW3a-a2dJWn4-187" value="" style="shape=tableRow;horizontal=0;startSize=0;swimlaneHead=0;swimlaneBody=0;strokeColor=inherit;top=0;left=0;bottom=0;right=0;collapsible=0;dropTarget=0;fillColor=none;points=[[0,0.5],[1,0.5]];portConstraint=eastwest;" vertex="1" parent="DspnJP_ZGW3a-a2dJWn4-183">
          <mxGeometry y="20" width="120" height="20" as="geometry" />
        </mxCell>
        <mxCell id="DspnJP_ZGW3a-a2dJWn4-188" value="9" style="shape=partialRectangle;html=1;whiteSpace=wrap;connectable=0;strokeColor=inherit;overflow=hidden;fillColor=none;top=0;left=0;bottom=0;right=0;pointerEvents=1;" vertex="1" parent="DspnJP_ZGW3a-a2dJWn4-187">
          <mxGeometry width="60" height="20" as="geometry">
            <mxRectangle width="60" height="20" as="alternateBounds" />
          </mxGeometry>
        </mxCell>
        <mxCell id="DspnJP_ZGW3a-a2dJWn4-189" value="9" style="shape=partialRectangle;html=1;whiteSpace=wrap;connectable=0;strokeColor=inherit;overflow=hidden;fillColor=none;top=0;left=0;bottom=0;right=0;pointerEvents=1;" vertex="1" parent="DspnJP_ZGW3a-a2dJWn4-187">
          <mxGeometry x="60" width="60" height="20" as="geometry">
            <mxRectangle width="60" height="20" as="alternateBounds" />
          </mxGeometry>
        </mxCell>
        <mxCell id="DspnJP_ZGW3a-a2dJWn4-190" value="" style="shape=tableRow;horizontal=0;startSize=0;swimlaneHead=0;swimlaneBody=0;strokeColor=inherit;top=0;left=0;bottom=0;right=0;collapsible=0;dropTarget=0;fillColor=none;points=[[0,0.5],[1,0.5]];portConstraint=eastwest;" vertex="1" parent="DspnJP_ZGW3a-a2dJWn4-183">
          <mxGeometry y="40" width="120" height="20" as="geometry" />
        </mxCell>
        <mxCell id="DspnJP_ZGW3a-a2dJWn4-191" value="NULL" style="shape=partialRectangle;html=1;whiteSpace=wrap;connectable=0;strokeColor=inherit;overflow=hidden;fillColor=none;top=0;left=0;bottom=0;right=0;pointerEvents=1;" vertex="1" parent="DspnJP_ZGW3a-a2dJWn4-190">
          <mxGeometry width="60" height="20" as="geometry">
            <mxRectangle width="60" height="20" as="alternateBounds" />
          </mxGeometry>
        </mxCell>
        <mxCell id="DspnJP_ZGW3a-a2dJWn4-192" value="6" style="shape=partialRectangle;html=1;whiteSpace=wrap;connectable=0;strokeColor=inherit;overflow=hidden;fillColor=none;top=0;left=0;bottom=0;right=0;pointerEvents=1;" vertex="1" parent="DspnJP_ZGW3a-a2dJWn4-190">
          <mxGeometry x="60" width="60" height="20" as="geometry">
            <mxRectangle width="60" height="20" as="alternateBounds" />
          </mxGeometry>
        </mxCell>
        <mxCell id="DspnJP_ZGW3a-a2dJWn4-193" value="" style="shape=table;startSize=0;container=1;collapsible=0;childLayout=tableLayout;" vertex="1" parent="1">
          <mxGeometry x="290" y="950" width="120" height="40" as="geometry" />
        </mxCell>
        <mxCell id="DspnJP_ZGW3a-a2dJWn4-194" value="" style="shape=tableRow;horizontal=0;startSize=0;swimlaneHead=0;swimlaneBody=0;strokeColor=inherit;top=0;left=0;bottom=0;right=0;collapsible=0;dropTarget=0;fillColor=none;points=[[0,0.5],[1,0.5]];portConstraint=eastwest;" vertex="1" parent="DspnJP_ZGW3a-a2dJWn4-193">
          <mxGeometry width="120" height="20" as="geometry" />
        </mxCell>
        <mxCell id="DspnJP_ZGW3a-a2dJWn4-195" value="3" style="shape=partialRectangle;html=1;whiteSpace=wrap;connectable=0;strokeColor=inherit;overflow=hidden;fillColor=none;top=0;left=0;bottom=0;right=0;pointerEvents=1;" vertex="1" parent="DspnJP_ZGW3a-a2dJWn4-194">
          <mxGeometry width="60" height="20" as="geometry">
            <mxRectangle width="60" height="20" as="alternateBounds" />
          </mxGeometry>
        </mxCell>
        <mxCell id="DspnJP_ZGW3a-a2dJWn4-196" value="NULL" style="shape=partialRectangle;html=1;whiteSpace=wrap;connectable=0;strokeColor=inherit;overflow=hidden;fillColor=none;top=0;left=0;bottom=0;right=0;pointerEvents=1;" vertex="1" parent="DspnJP_ZGW3a-a2dJWn4-194">
          <mxGeometry x="60" width="60" height="20" as="geometry">
            <mxRectangle width="60" height="20" as="alternateBounds" />
          </mxGeometry>
        </mxCell>
        <mxCell id="DspnJP_ZGW3a-a2dJWn4-197" value="" style="shape=tableRow;horizontal=0;startSize=0;swimlaneHead=0;swimlaneBody=0;strokeColor=inherit;top=0;left=0;bottom=0;right=0;collapsible=0;dropTarget=0;fillColor=none;points=[[0,0.5],[1,0.5]];portConstraint=eastwest;" vertex="1" parent="DspnJP_ZGW3a-a2dJWn4-193">
          <mxGeometry y="20" width="120" height="20" as="geometry" />
        </mxCell>
        <mxCell id="DspnJP_ZGW3a-a2dJWn4-198" value="9" style="shape=partialRectangle;html=1;whiteSpace=wrap;connectable=0;strokeColor=inherit;overflow=hidden;fillColor=none;top=0;left=0;bottom=0;right=0;pointerEvents=1;" vertex="1" parent="DspnJP_ZGW3a-a2dJWn4-197">
          <mxGeometry width="60" height="20" as="geometry">
            <mxRectangle width="60" height="20" as="alternateBounds" />
          </mxGeometry>
        </mxCell>
        <mxCell id="DspnJP_ZGW3a-a2dJWn4-199" value="9" style="shape=partialRectangle;html=1;whiteSpace=wrap;connectable=0;strokeColor=inherit;overflow=hidden;fillColor=none;top=0;left=0;bottom=0;right=0;pointerEvents=1;" vertex="1" parent="DspnJP_ZGW3a-a2dJWn4-197">
          <mxGeometry x="60" width="60" height="20" as="geometry">
            <mxRectangle width="60" height="20" as="alternateBounds" />
          </mxGeometry>
        </mxCell>
        <mxCell id="DspnJP_ZGW3a-a2dJWn4-200" value="" style="rounded=1;whiteSpace=wrap;html=1;strokeColor=#b4a996;fillColor=#56a0d3;" vertex="1" parent="1">
          <mxGeometry x="524" y="940" width="145" height="60" as="geometry" />
        </mxCell>
        <mxCell id="DspnJP_ZGW3a-a2dJWn4-201" value="&lt;font style=&quot;&quot;&gt;&lt;span style=&quot;font-size: 24px;&quot;&gt;Filter&lt;/span&gt;&lt;br&gt;&lt;font style=&quot;font-size: 12px;&quot;&gt;(A.Key1 &amp;gt; 0)&lt;/font&gt;&lt;br&gt;&lt;/font&gt;" style="text;html=1;strokeColor=none;fillColor=none;align=center;verticalAlign=middle;whiteSpace=wrap;rounded=0;" vertex="1" parent="1">
          <mxGeometry x="536.5" y="940" width="120" height="60" as="geometry" />
        </mxCell>
        <mxCell id="DspnJP_ZGW3a-a2dJWn4-202" value="" style="rounded=1;whiteSpace=wrap;html=1;strokeColor=#b4a996;fillColor=#56a0d3;" vertex="1" parent="1">
          <mxGeometry x="509" y="1050" width="175" height="60" as="geometry" />
        </mxCell>
        <mxCell id="DspnJP_ZGW3a-a2dJWn4-203" value="&lt;font style=&quot;&quot;&gt;&lt;span style=&quot;font-size: 24px;&quot;&gt;Left Outer Join&lt;br&gt;&lt;/span&gt;(A.Key1 = B.Key2)&lt;br&gt;&lt;/font&gt;" style="text;html=1;strokeColor=none;fillColor=none;align=center;verticalAlign=middle;whiteSpace=wrap;rounded=0;" vertex="1" parent="1">
          <mxGeometry x="511.5" y="1050" width="170" height="60" as="geometry" />
        </mxCell>
        <mxCell id="DspnJP_ZGW3a-a2dJWn4-204" value="" style="rounded=1;whiteSpace=wrap;html=1;strokeColor=#b4a996;fillColor=#56a0d3;" vertex="1" parent="1">
          <mxGeometry x="421.5" y="1170" width="145" height="60" as="geometry" />
        </mxCell>
        <mxCell id="DspnJP_ZGW3a-a2dJWn4-205" value="&lt;font style=&quot;&quot;&gt;&lt;span style=&quot;font-size: 24px;&quot;&gt;Table A&lt;/span&gt;&lt;br&gt;&lt;/font&gt;" style="text;html=1;strokeColor=none;fillColor=none;align=center;verticalAlign=middle;whiteSpace=wrap;rounded=0;" vertex="1" parent="1">
          <mxGeometry x="434" y="1170" width="120" height="60" as="geometry" />
        </mxCell>
        <mxCell id="DspnJP_ZGW3a-a2dJWn4-206" value="" style="rounded=1;whiteSpace=wrap;html=1;strokeColor=#b4a996;fillColor=#56a0d3;" vertex="1" parent="1">
          <mxGeometry x="626.5" y="1170" width="145" height="60" as="geometry" />
        </mxCell>
        <mxCell id="DspnJP_ZGW3a-a2dJWn4-207" value="&lt;font style=&quot;&quot;&gt;&lt;span style=&quot;font-size: 24px;&quot;&gt;Table B&lt;/span&gt;&lt;br&gt;&lt;/font&gt;" style="text;html=1;strokeColor=none;fillColor=none;align=center;verticalAlign=middle;whiteSpace=wrap;rounded=0;" vertex="1" parent="1">
          <mxGeometry x="639" y="1170" width="120" height="60" as="geometry" />
        </mxCell>
        <mxCell id="DspnJP_ZGW3a-a2dJWn4-208" value="" style="endArrow=classic;html=1;rounded=0;exitX=0.5;exitY=0;exitDx=0;exitDy=0;entryX=0.5;entryY=1;entryDx=0;entryDy=0;" edge="1" parent="1" source="DspnJP_ZGW3a-a2dJWn4-205" target="DspnJP_ZGW3a-a2dJWn4-203">
          <mxGeometry width="50" height="50" relative="1" as="geometry">
            <mxPoint x="814" y="1130" as="sourcePoint" />
            <mxPoint x="864" y="1080" as="targetPoint" />
          </mxGeometry>
        </mxCell>
        <mxCell id="DspnJP_ZGW3a-a2dJWn4-209" value="" style="endArrow=classic;html=1;rounded=0;exitX=0.5;exitY=0;exitDx=0;exitDy=0;entryX=0.5;entryY=1;entryDx=0;entryDy=0;" edge="1" parent="1" source="DspnJP_ZGW3a-a2dJWn4-207" target="DspnJP_ZGW3a-a2dJWn4-203">
          <mxGeometry width="50" height="50" relative="1" as="geometry">
            <mxPoint x="504" y="1180" as="sourcePoint" />
            <mxPoint x="607" y="1120" as="targetPoint" />
          </mxGeometry>
        </mxCell>
        <mxCell id="DspnJP_ZGW3a-a2dJWn4-210" value="" style="endArrow=classic;html=1;rounded=0;entryX=0.5;entryY=1;entryDx=0;entryDy=0;" edge="1" parent="1" source="DspnJP_ZGW3a-a2dJWn4-203" target="DspnJP_ZGW3a-a2dJWn4-201">
          <mxGeometry width="50" height="50" relative="1" as="geometry">
            <mxPoint x="709" y="1180" as="sourcePoint" />
            <mxPoint x="607" y="1120" as="targetPoint" />
          </mxGeometry>
        </mxCell>
        <mxCell id="DspnJP_ZGW3a-a2dJWn4-211" value="" style="endArrow=classic;html=1;rounded=0;exitX=0.5;exitY=0;exitDx=0;exitDy=0;" edge="1" parent="1" source="DspnJP_ZGW3a-a2dJWn4-201">
          <mxGeometry width="50" height="50" relative="1" as="geometry">
            <mxPoint x="719" y="1190" as="sourcePoint" />
            <mxPoint x="597" y="900" as="targetPoint" />
          </mxGeometry>
        </mxCell>
        <mxCell id="DspnJP_ZGW3a-a2dJWn4-212" value="" style="shape=table;startSize=0;container=1;collapsible=0;childLayout=tableLayout;" vertex="1" parent="1">
          <mxGeometry x="451.5" y="1240" width="60" height="40" as="geometry" />
        </mxCell>
        <mxCell id="DspnJP_ZGW3a-a2dJWn4-213" value="" style="shape=tableRow;horizontal=0;startSize=0;swimlaneHead=0;swimlaneBody=0;strokeColor=inherit;top=0;left=0;bottom=0;right=0;collapsible=0;dropTarget=0;fillColor=none;points=[[0,0.5],[1,0.5]];portConstraint=eastwest;" vertex="1" parent="DspnJP_ZGW3a-a2dJWn4-212">
          <mxGeometry width="60" height="20" as="geometry" />
        </mxCell>
        <mxCell id="DspnJP_ZGW3a-a2dJWn4-214" value="3" style="shape=partialRectangle;html=1;whiteSpace=wrap;connectable=0;strokeColor=inherit;overflow=hidden;fillColor=none;top=0;left=0;bottom=0;right=0;pointerEvents=1;" vertex="1" parent="DspnJP_ZGW3a-a2dJWn4-213">
          <mxGeometry width="60" height="20" as="geometry">
            <mxRectangle width="60" height="20" as="alternateBounds" />
          </mxGeometry>
        </mxCell>
        <mxCell id="DspnJP_ZGW3a-a2dJWn4-215" value="" style="shape=tableRow;horizontal=0;startSize=0;swimlaneHead=0;swimlaneBody=0;strokeColor=inherit;top=0;left=0;bottom=0;right=0;collapsible=0;dropTarget=0;fillColor=none;points=[[0,0.5],[1,0.5]];portConstraint=eastwest;" vertex="1" parent="DspnJP_ZGW3a-a2dJWn4-212">
          <mxGeometry y="20" width="60" height="20" as="geometry" />
        </mxCell>
        <mxCell id="DspnJP_ZGW3a-a2dJWn4-216" value="9" style="shape=partialRectangle;html=1;whiteSpace=wrap;connectable=0;strokeColor=inherit;overflow=hidden;fillColor=none;top=0;left=0;bottom=0;right=0;pointerEvents=1;" vertex="1" parent="DspnJP_ZGW3a-a2dJWn4-215">
          <mxGeometry width="60" height="20" as="geometry">
            <mxRectangle width="60" height="20" as="alternateBounds" />
          </mxGeometry>
        </mxCell>
        <mxCell id="DspnJP_ZGW3a-a2dJWn4-217" value="" style="shape=table;startSize=0;container=1;collapsible=0;childLayout=tableLayout;" vertex="1" parent="1">
          <mxGeometry x="669" y="1240" width="60" height="40" as="geometry" />
        </mxCell>
        <mxCell id="DspnJP_ZGW3a-a2dJWn4-218" value="" style="shape=tableRow;horizontal=0;startSize=0;swimlaneHead=0;swimlaneBody=0;strokeColor=inherit;top=0;left=0;bottom=0;right=0;collapsible=0;dropTarget=0;fillColor=none;points=[[0,0.5],[1,0.5]];portConstraint=eastwest;" vertex="1" parent="DspnJP_ZGW3a-a2dJWn4-217">
          <mxGeometry width="60" height="20" as="geometry" />
        </mxCell>
        <mxCell id="DspnJP_ZGW3a-a2dJWn4-219" value="6" style="shape=partialRectangle;html=1;whiteSpace=wrap;connectable=0;strokeColor=inherit;overflow=hidden;fillColor=none;top=0;left=0;bottom=0;right=0;pointerEvents=1;" vertex="1" parent="DspnJP_ZGW3a-a2dJWn4-218">
          <mxGeometry width="60" height="20" as="geometry">
            <mxRectangle width="60" height="20" as="alternateBounds" />
          </mxGeometry>
        </mxCell>
        <mxCell id="DspnJP_ZGW3a-a2dJWn4-220" value="" style="shape=tableRow;horizontal=0;startSize=0;swimlaneHead=0;swimlaneBody=0;strokeColor=inherit;top=0;left=0;bottom=0;right=0;collapsible=0;dropTarget=0;fillColor=none;points=[[0,0.5],[1,0.5]];portConstraint=eastwest;" vertex="1" parent="DspnJP_ZGW3a-a2dJWn4-217">
          <mxGeometry y="20" width="60" height="20" as="geometry" />
        </mxCell>
        <mxCell id="DspnJP_ZGW3a-a2dJWn4-221" value="9" style="shape=partialRectangle;html=1;whiteSpace=wrap;connectable=0;strokeColor=inherit;overflow=hidden;fillColor=none;top=0;left=0;bottom=0;right=0;pointerEvents=1;" vertex="1" parent="DspnJP_ZGW3a-a2dJWn4-220">
          <mxGeometry width="60" height="20" as="geometry">
            <mxRectangle width="60" height="20" as="alternateBounds" />
          </mxGeometry>
        </mxCell>
        <mxCell id="DspnJP_ZGW3a-a2dJWn4-232" value="" style="shape=table;startSize=0;container=1;collapsible=0;childLayout=tableLayout;" vertex="1" parent="1">
          <mxGeometry x="684" y="950" width="120" height="40" as="geometry" />
        </mxCell>
        <mxCell id="DspnJP_ZGW3a-a2dJWn4-233" value="" style="shape=tableRow;horizontal=0;startSize=0;swimlaneHead=0;swimlaneBody=0;strokeColor=inherit;top=0;left=0;bottom=0;right=0;collapsible=0;dropTarget=0;fillColor=none;points=[[0,0.5],[1,0.5]];portConstraint=eastwest;" vertex="1" parent="DspnJP_ZGW3a-a2dJWn4-232">
          <mxGeometry width="120" height="20" as="geometry" />
        </mxCell>
        <mxCell id="DspnJP_ZGW3a-a2dJWn4-234" value="3" style="shape=partialRectangle;html=1;whiteSpace=wrap;connectable=0;strokeColor=inherit;overflow=hidden;fillColor=none;top=0;left=0;bottom=0;right=0;pointerEvents=1;" vertex="1" parent="DspnJP_ZGW3a-a2dJWn4-233">
          <mxGeometry width="60" height="20" as="geometry">
            <mxRectangle width="60" height="20" as="alternateBounds" />
          </mxGeometry>
        </mxCell>
        <mxCell id="DspnJP_ZGW3a-a2dJWn4-235" value="NULL" style="shape=partialRectangle;html=1;whiteSpace=wrap;connectable=0;strokeColor=inherit;overflow=hidden;fillColor=none;top=0;left=0;bottom=0;right=0;pointerEvents=1;" vertex="1" parent="DspnJP_ZGW3a-a2dJWn4-233">
          <mxGeometry x="60" width="60" height="20" as="geometry">
            <mxRectangle width="60" height="20" as="alternateBounds" />
          </mxGeometry>
        </mxCell>
        <mxCell id="DspnJP_ZGW3a-a2dJWn4-236" value="" style="shape=tableRow;horizontal=0;startSize=0;swimlaneHead=0;swimlaneBody=0;strokeColor=inherit;top=0;left=0;bottom=0;right=0;collapsible=0;dropTarget=0;fillColor=none;points=[[0,0.5],[1,0.5]];portConstraint=eastwest;" vertex="1" parent="DspnJP_ZGW3a-a2dJWn4-232">
          <mxGeometry y="20" width="120" height="20" as="geometry" />
        </mxCell>
        <mxCell id="DspnJP_ZGW3a-a2dJWn4-237" value="9" style="shape=partialRectangle;html=1;whiteSpace=wrap;connectable=0;strokeColor=inherit;overflow=hidden;fillColor=none;top=0;left=0;bottom=0;right=0;pointerEvents=1;" vertex="1" parent="DspnJP_ZGW3a-a2dJWn4-236">
          <mxGeometry width="60" height="20" as="geometry">
            <mxRectangle width="60" height="20" as="alternateBounds" />
          </mxGeometry>
        </mxCell>
        <mxCell id="DspnJP_ZGW3a-a2dJWn4-238" value="9" style="shape=partialRectangle;html=1;whiteSpace=wrap;connectable=0;strokeColor=inherit;overflow=hidden;fillColor=none;top=0;left=0;bottom=0;right=0;pointerEvents=1;" vertex="1" parent="DspnJP_ZGW3a-a2dJWn4-236">
          <mxGeometry x="60" width="60" height="20" as="geometry">
            <mxRectangle width="60" height="20" as="alternateBounds" />
          </mxGeometry>
        </mxCell>
        <mxCell id="DspnJP_ZGW3a-a2dJWn4-239" value="" style="shape=table;startSize=0;container=1;collapsible=0;childLayout=tableLayout;" vertex="1" parent="1">
          <mxGeometry x="690" y="1060" width="120" height="40" as="geometry" />
        </mxCell>
        <mxCell id="DspnJP_ZGW3a-a2dJWn4-240" value="" style="shape=tableRow;horizontal=0;startSize=0;swimlaneHead=0;swimlaneBody=0;strokeColor=inherit;top=0;left=0;bottom=0;right=0;collapsible=0;dropTarget=0;fillColor=none;points=[[0,0.5],[1,0.5]];portConstraint=eastwest;" vertex="1" parent="DspnJP_ZGW3a-a2dJWn4-239">
          <mxGeometry width="120" height="20" as="geometry" />
        </mxCell>
        <mxCell id="DspnJP_ZGW3a-a2dJWn4-241" value="3" style="shape=partialRectangle;html=1;whiteSpace=wrap;connectable=0;strokeColor=inherit;overflow=hidden;fillColor=none;top=0;left=0;bottom=0;right=0;pointerEvents=1;" vertex="1" parent="DspnJP_ZGW3a-a2dJWn4-240">
          <mxGeometry width="60" height="20" as="geometry">
            <mxRectangle width="60" height="20" as="alternateBounds" />
          </mxGeometry>
        </mxCell>
        <mxCell id="DspnJP_ZGW3a-a2dJWn4-242" value="NULL" style="shape=partialRectangle;html=1;whiteSpace=wrap;connectable=0;strokeColor=inherit;overflow=hidden;fillColor=none;top=0;left=0;bottom=0;right=0;pointerEvents=1;" vertex="1" parent="DspnJP_ZGW3a-a2dJWn4-240">
          <mxGeometry x="60" width="60" height="20" as="geometry">
            <mxRectangle width="60" height="20" as="alternateBounds" />
          </mxGeometry>
        </mxCell>
        <mxCell id="DspnJP_ZGW3a-a2dJWn4-243" value="" style="shape=tableRow;horizontal=0;startSize=0;swimlaneHead=0;swimlaneBody=0;strokeColor=inherit;top=0;left=0;bottom=0;right=0;collapsible=0;dropTarget=0;fillColor=none;points=[[0,0.5],[1,0.5]];portConstraint=eastwest;" vertex="1" parent="DspnJP_ZGW3a-a2dJWn4-239">
          <mxGeometry y="20" width="120" height="20" as="geometry" />
        </mxCell>
        <mxCell id="DspnJP_ZGW3a-a2dJWn4-244" value="9" style="shape=partialRectangle;html=1;whiteSpace=wrap;connectable=0;strokeColor=inherit;overflow=hidden;fillColor=none;top=0;left=0;bottom=0;right=0;pointerEvents=1;" vertex="1" parent="DspnJP_ZGW3a-a2dJWn4-243">
          <mxGeometry width="60" height="20" as="geometry">
            <mxRectangle width="60" height="20" as="alternateBounds" />
          </mxGeometry>
        </mxCell>
        <mxCell id="DspnJP_ZGW3a-a2dJWn4-245" value="9" style="shape=partialRectangle;html=1;whiteSpace=wrap;connectable=0;strokeColor=inherit;overflow=hidden;fillColor=none;top=0;left=0;bottom=0;right=0;pointerEvents=1;" vertex="1" parent="DspnJP_ZGW3a-a2dJWn4-243">
          <mxGeometry x="60" width="60" height="20" as="geometry">
            <mxRectangle width="60" height="20" as="alternateBounds" />
          </mxGeometry>
        </mxCell>
      </root>
    </mxGraphModel>
  </diagram>
</mxfile>
